/* XPM */
static char * coll_2_xpm[] = {
"32 32 8 1",
" 	c #1E1D31",
".	c #B86F50",
"+	c #743F39",
"@	c #C0CBDC",
"#	c #8B9BB4",
"$	c #9E2835",
"%	c #000000",
"&	c #E43B44",
"                                ",
"                                ",
"                                ",
"                                ",
"                                ",
"                                ",
"                                ",
"                                ",
"                                ",
"                                ",
"                                ",
"                                ",
"            ....++              ",
"            ....++              ",
"          @@@@@@####            ",
"          @@@@@@####            ",
"          @@....++##            ",
"          @@....++##            ",
"          ####$$####            ",
"          ####$$####            ",
"            ##$$##              ",
"            ##$$##              ",
"          @@%%$$$$##            ",
"          @@%%$$$$##            ",
"        @@%%$$$$&&$$##          ",
"        @@%%$$$$&&$$##          ",
"        ##$$$$&&@@$$##          ",
"        ##$$$$&&@@$$##          ",
"        ##$$&&@@$$&&##          ",
"        ##$$&&@@$$&&##          ",
"          ##########            ",
"          ##########            "};
