/* XPM */
static char * coll_5_xpm[] = {
"32 32 7 1",
" 	c #1E1D31",
".	c #B86F50",
"+	c #743F39",
"@	c #C0CBDC",
"#	c #8B9BB4",
"$	c #FF86A6",
"%	c #FF0044",
"                                ",
"                                ",
"                                ",
"                                ",
"                                ",
"                                ",
"                                ",
"                                ",
"                                ",
"                                ",
"                                ",
"                                ",
"            ....++              ",
"            ....++              ",
"          @@@@@@####            ",
"          @@@@@@####            ",
"          @@....++##            ",
"          @@....++##            ",
"          ####$$####            ",
"          ####$$####            ",
"            ##$$##              ",
"            ##$$##              ",
"          @@%%$$$$##            ",
"          @@%%$$$$##            ",
"        @@%%$$$$$$$$##          ",
"        @@%%$$$$$$$$##          ",
"        ##$$$$$$@@$$##          ",
"        ##$$$$$$@@$$##          ",
"        ##$$$$@@$$$$##          ",
"        ##$$$$@@$$$$##          ",
"          ##########            ",
"          ##########            "};
