/* XPM */
static char * enem_6_xpm[] = {
"32 32 8 1",
" 	c #1E1D31",
".	c #E43B44",
"+	c #C0CBDC",
"@	c #EAD4AA",
"#	c #262B44",
"$	c #5A6988",
"%	c #F6757A",
"&	c #3A4466",
"                                ",
"                                ",
"                                ",
"                                ",
"                                ",
"                                ",
"                                ",
"                                ",
"                ..              ",
"                ..              ",
"                                ",
"                                ",
"            ..              ..  ",
"            ..              ..  ",
"                  ..            ",
"                  ..            ",
"                                ",
"                                ",
"              ..............    ",
"              ..............    ",
"            ..++++++++++++@@..  ",
"            ..++++++++++++@@..  ",
"            ..++++++++++++++..  ",
"            ..++++++++++++++..  ",
"            ..++####++####++..  ",
"            ..++####++####++..  ",
"            ..$$%%##++%%##++..  ",
"            ..$$%%##++%%##++..  ",
"            ..$$$$$$$$$$$$$$..  ",
"            ..$$$$$$$$$$$$$$..  ",
"              ..&&$$&&$$&&..    ",
"              ..&&$$&&$$&&..    "};
