/* XPM */
static char * enem_10_xpm[] = {
"32 32 8 1",
" 	c #1E1D31",
".	c #E43B44",
"+	c #C0CBDC",
"@	c #EAD4AA",
"#	c #F6757A",
"$	c #262B44",
"%	c #5A6988",
"&	c #3A4466",
"                                ",
"                                ",
"                                ",
"                                ",
"                                ",
"                                ",
"                                ",
"                                ",
"       ..                       ",
"       ..                       ",
"                                ",
"                                ",
"   ..              ..           ",
"   ..              ..           ",
"         ..                     ",
"         ..                     ",
"                                ",
"                                ",
"     ..............             ",
"     ..............             ",
"   ..++++++++++++@@..           ",
"   ..++++++++++++@@..           ",
"   ..++++++++++++++..           ",
"   ..++++++++++++++..           ",
"   ..++##$$++##$$++..           ",
"   ..++##$$++##$$++..           ",
"   ..%%$$$$++$$$$++..           ",
"   ..%%$$$$++$$$$++..           ",
"   ..%%%%%%%%%%%%%%..           ",
"   ..%%%%%%%%%%%%%%..           ",
"     ..&&%%&&%%&&..             ",
"     ..&&%%&&%%&&..             "};
