/* XPM */
static char * exit_0_xpm[] = {
"32 32 4 1",
" 	c #1E1D31",
".	c #3F2832",
"+	c #124E89",
"@	c #743F39",
"                                ",
"                                ",
"                                ",
"                                ",
"                                ",
"                                ",
"                                ",
"                                ",
"                                ",
"                                ",
"                                ",
"                                ",
"                                ",
"                                ",
"                                ",
"                                ",
"                                ",
"                                ",
"                                ",
"                                ",
"                                ",
"                                ",
"                                ",
"                                ",
"..++++                          ",
"..++++                          ",
"++++++++@@@@      ..@@@@@@@@....",
"++++++++@@@@      ..@@@@@@@@....",
"++++++++....@@@@@@@@..          ",
"++++++++....@@@@@@@@..          ",
"..++++..                        ",
"..++++..                        "};
