/* XPM */
static char * exit_1_xpm[] = {
"32 32 5 1",
" 	c #1E1D31",
".	c #0095E9",
"+	c #3F2832",
"@	c #124E89",
"#	c #743F39",
"                                ",
"                                ",
"                                ",
"                                ",
"                                ",
"                                ",
"                                ",
"                                ",
"                                ",
"                                ",
"                                ",
"                                ",
"                                ",
"                                ",
"                                ",
"                                ",
"                                ",
"                                ",
"                                ",
"                                ",
"        ..                      ",
"        ..                      ",
"                                ",
"                                ",
"++@@@@                          ",
"++@@@@                          ",
"@@..@@@@####      ++########++++",
"@@..@@@@####      ++########++++",
"@@@@..@@++++########++          ",
"@@@@..@@++++########++          ",
"++@@@@++                        ",
"++@@@@++                        "};
