/* XPM */
static char * wall_32_xpm[] = {
"32 32 3 1",
" 	c #743F39",
".	c #3F2832",
"+	c #B86F50",
"      ..            ....        ",
"      ..            ....        ",
"      ....    ..........        ",
"      ....    ..........        ",
"    ............++  ......      ",
"    ............++  ......      ",
"......  ....++        ..........",
"......  ....++        ..........",
"    ......              ....    ",
"    ......              ....    ",
"      ....            ....      ",
"      ....            ....      ",
"        ....          ..        ",
"        ....          ..        ",
"      ........      ....        ",
"      ........      ....        ",
"    ....++  ..............      ",
"    ....++  ..............      ",
"  ....++      ......++  ......  ",
"  ....++      ......++  ......  ",
"....          ....++        ....",
"....          ....++        ....",
"....          ....            ..",
"....          ....            ..",
"  ....      ........          ..",
"  ....      ........          ..",
"..............    ......    ....",
"..............    ......    ....",
"  ....  ..          ..........  ",
"  ....  ..          ..........  ",
"    ....              ....      ",
"    ....              ....      "};
