/* XPM */
static char * collectable_xpm[] = {
"16 16 8 1",
" 	c #1E1D31",
".	c #B86F50",
"+	c #743F39",
"@	c #C0CBDC",
"#	c #8B9BB4",
"$	c #E43B44",
"%	c #9E2835",
"&	c #FF0044",
"                ",
"                ",
"                ",
"                ",
"                ",
"                ",
"      ..+       ",
"     @@@##      ",
"     @..+#      ",
"     ##$##      ",
"      #$#       ",
"     @%$$#      ",
"    @%$$&$#     ",
"    #$$&@$#     ",
"    #$&@$&#     ",
"     #####      "};
