/* XPM */
static char * exit_xpm[] = {
"16 16 6 1",
" 	c #1E1D31",
".	c #0095E9",
"+	c #3F2832",
"@	c #124E89",
"#	c #2CE8F5",
"$	c #743F39",
"                ",
"                ",
"                ",
"                ",
"                ",
"   .            ",
"                ",
"                ",
"                ",
" .              ",
"    .           ",
"                ",
"+@@             ",
"@.#@$$   +$$$$++",
"@#.@++$$$$+     ",
"+@@+            "};
