/* XPM */
static char * gold_32_xpm[] = {
"32 32 6 1",
" 	c #743F39",
".	c #3F2832",
"+	c #B86F50",
"@	c #FEE761",
"#	c #FEAE34",
"$	c #FFFFFF",
"      ..            ....        ",
"      ..            ....        ",
"      ....    ..........        ",
"      ....    ..........        ",
"    ............++  @@##..      ",
"    ............++  @@##..      ",
"......  ....++      ......$$@@..",
"......  ....++      ......$$@@..",
"    ......    $$@@@@    $$@@##  ",
"    ......    $$@@@@    $$@@##  ",
"      ....$$$$@@@@##  ..######  ",
"      ....$$$$@@@@##  ..######  ",
"    @@##..@@@@######  ..######  ",
"    @@##..@@@@######  ..######  ",
"    ........########..........  ",
"    ........########..........  ",
"    ....++  ####......@@##      ",
"    ....++  ####......@@##      ",
"  ....++    ........$$####....  ",
"  ....++    ........$$####....  ",
"....      $$@@....++####..  ....",
"....      $$@@....++####..  ....",
"....      ####....  ....      ..",
"....      ####....  ....      ..",
"  ....    ..........  @@##    ..",
"  ....    ..........  @@##    ..",
"..............    ........  ....",
"..............    ........  ....",
"  ....  ..          ..........  ",
"  ....  ..          ..........  ",
"    ....              ....      ",
"    ....              ....      "};
