/* XPM */
static char * gold_wall_xpm[] = {
"16 16 6 1",
" 	c #743F39",
".	c #3F2832",
"+	c #B86F50",
"@	c #FEE761",
"#	c #FEAE34",
"$	c #FFFFFF",
"   .      ..    ",
"   ..  .....    ",
"  ......+ @#.   ",
"... ..+   ...$@.",
"  ...  $@@  $@# ",
"   ..$$@@# .### ",
"  @#.@@### .### ",
"  ....####..... ",
"  ..+ ##...@#   ",
" ..+  ....$##.. ",
"..   $@..+##. ..",
"..   ##.. ..   .",
" ..  ..... @#  .",
".......  .... ..",
" .. .     ..... ",
"  ..       ..   "};
