/* XPM */
static char * player_32_xpm[] = {
"32 32 14 1",
" 	c #1E1D31",
".	c #B86F50",
"+	c #C28569",
"@	c #E4A672",
"#	c #3A4466",
"$	c #5A6988",
"%	c #C0CBDC",
"&	c #262B44",
"*	c #8B9BB4",
"=	c #181425",
"-	c #743F39",
";	c #212238",
">	c #3F2832",
",	c #E8B796",
"              ....++++          ",
"              ....++++          ",
"            @@++++++++++        ",
"            @@++++++++++        ",
"          ++++##$$++++##$$      ",
"          ++++##$$++++##$$      ",
"          ..++%%&&++++%%&&      ",
"          ..++%%&&++++%%&&      ",
"          **++%%==++++%%==      ",
"          **++%%==++++%%==      ",
"          **$$..++----++..      ",
"          **$$..++----++..      ",
"          ;;**$$**&&&&**$$      ",
"          ;;**$$**&&&&**$$      ",
"          @@--$$$$****$$##      ",
"          @@--$$$$****$$##      ",
"        ..----##$$$$$$$$--      ",
"        ..----##$$$$$$$$--      ",
"      -->>>>----$$$$$$----..    ",
"      -->>>>----$$$$$$----..    ",
"      >>,,,,------**##------,,  ",
"      >>,,,,------**##------,,  ",
"        ++++----------------++  ",
"        ++++----------------++  ",
"        ---------->>--------    ",
"        ---------->>--------    ",
"        ------------------>>    ",
"        ------------------>>    ",
"        >>>>>>>>>>>>>>>>>>>>    ",
"        >>>>>>>>>>>>>>>>>>>>    ",
"        >>  ######  ######      ",
"        >>  ######  ######      "};
