/* XPM */
static char * wall_xpm[] = {
"16 16 3 1",
" 	c #743F39",
".	c #3F2832",
"+	c #B86F50",
"   .      ..    ",
"   ..  .....    ",
"  ......+ ...   ",
"... ..+    .....",
"  ...       ..  ",
"   ..      ..   ",
"    ..     .    ",
"   ....   ..    ",
"  ..+ .......   ",
" ..+   ...+ ... ",
"..     ..+    ..",
"..     ..      .",
" ..   ....     .",
".......  ...  ..",
" .. .     ..... ",
"  ..       ..   "};
